HIERARCHY
ROOT RootJoint
{
    OFFSET   0.000000   0.000000   0.000000
    CHANNELS 6 Xposition Yposition Zposition Xrotation Yrotation Zrotation
    JOINT pelvis_lowerback
    {
        OFFSET   0.000000   0.093605   0.000000
        CHANNELS 3 Xrotation Yrotation Zrotation
        JOINT lowerback_torso
        {
            OFFSET   0.000000   0.100000   0.000000
            CHANNELS 3 Xrotation Yrotation Zrotation
            JOINT torso_head
            {
                OFFSET   0.000000   0.282350   0.000000
                CHANNELS 3 Xrotation Yrotation Zrotation
                End Site
                {
                    OFFSET   0.000000   0.192650   0.000000
                }
            }
            JOINT rTorso_Clavicle
            {
                OFFSET  -0.001000   0.157500   0.000000
                CHANNELS 3 Xrotation Yrotation Zrotation
                JOINT rShoulder
                {
                    OFFSET  -0.117647   0.000000   0.000000
                    CHANNELS 3 Xrotation Yrotation Zrotation
                    JOINT rElbow
                    {
                        OFFSET  -0.245000   0.000000   0.000000
                        CHANNELS 3 Xrotation Yrotation Zrotation
                        JOINT rWrist
                        {
                            OFFSET  -0.240000   0.000000   0.000000
                            CHANNELS 3 Xrotation Yrotation Zrotation
                            End Site
                            {
                                OFFSET  -0.116353  -0.002500   0.000000
                            }
                        }
                    }
                }
            }
            JOINT lTorso_Clavicle
            {
                OFFSET   0.001000   0.157500   0.000000
                CHANNELS 3 Xrotation Yrotation Zrotation
                JOINT lShoulder
                {
                    OFFSET   0.117647   0.000000   0.000000
                    CHANNELS 3 Xrotation Yrotation Zrotation
                    JOINT lElbow
                    {
                        OFFSET   0.245000   0.000000   0.000000
                        CHANNELS 3 Xrotation Yrotation Zrotation
                        JOINT lWrist
                        {
                            OFFSET   0.240000   0.000000   0.000000
                            CHANNELS 3 Xrotation Yrotation Zrotation
                            End Site
                            {
                                OFFSET   0.116353  -0.002500   0.000000
                            }
                        }
                    }
                }
            }
        }
    }
    JOINT rHip
    {
        OFFSET  -0.100000  -0.051395   0.000000
        CHANNELS 3 Xrotation Yrotation Zrotation
        JOINT rKnee
        {
            OFFSET   0.000000  -0.410000   0.000000
            CHANNELS 3 Xrotation Yrotation Zrotation
            JOINT rAnkle
            {
                OFFSET   0.000000  -0.390000   0.000000
                CHANNELS 3 Xrotation Yrotation Zrotation
                JOINT rToeJoint
                {
                    OFFSET   0.000000  -0.050000   0.130000
                    CHANNELS 3 Xrotation Yrotation Zrotation
                    End Site
                    {
                        OFFSET  -0.010000   0.002000   0.060000
                    }
                }
            }
        }
    }
    JOINT lHip
    {
        OFFSET   0.100000  -0.051395   0.000000
        CHANNELS 3 Xrotation Yrotation Zrotation
        JOINT lKnee
        {
            OFFSET   0.000000  -0.410000   0.000000
            CHANNELS 3 Xrotation Yrotation Zrotation
            JOINT lAnkle
            {
                OFFSET   0.000000  -0.390000   0.000000
                CHANNELS 3 Xrotation Yrotation Zrotation
                JOINT lToeJoint
                {
                    OFFSET   0.000000  -0.050000   0.130000
                    CHANNELS 3 Xrotation Yrotation Zrotation
                    End Site
                    {
                        OFFSET   0.010000   0.002000   0.060000
                    }
                }
            }
        }
    }
}
MOTION
Frames: 14
Frame Time:   0.008333
 -2.376719   0.925631   3.975860   0.000000   0.000000   0.000000   0.000000   0.000000   0.000000   0.000000   0.000000   0.000000   0.000000   0.000000   0.000000   0.000000   0.000000   0.000000   0.000000   0.000000   0.000000   0.000000   0.000000   0.000000   0.000000   0.000000   0.000000   0.000000   0.000000   0.000000   0.000000   0.000000   0.000000   0.000000   0.000000   0.000000   0.000000   0.000000   0.000000   0.000000   0.000000   0.000000   0.000000   0.000000   0.000000   0.000000   0.000000   0.000000   0.000000   0.000000   0.000000   0.000000   0.000000   0.000000   0.000000   0.000000   0.000000   0.000000   0.000000   0.000000   0.000000   0.000000   0.000000
 -2.376539   0.926223   3.976350  -0.382486   0.055823   0.035974   0.356253   0.005499  -0.031077   0.049273  -0.155498   0.017043  -0.083209   0.130489   0.019691   0.159310  -0.277225   0.392933   0.900663   0.339096   2.018406   0.016369   0.766752  -0.007337   0.489779  -0.406275  -2.742366   0.197649   0.332740  -0.469558   1.214347  -0.209503  -1.952670   0.017373  -0.824050   0.010429   0.552158   0.369125   2.583889   0.299311   0.157229  -0.131590   0.530118   0.000449   0.000984  -0.725812  -0.035069   0.051367  -0.218476  -0.000082  -0.000341   0.365325  -0.222904   0.006738   0.477050  -0.000179  -0.000694  -0.805057  -0.038379  -0.030011   0.195464  -0.000020  -0.000351
 -2.376298   0.927236   3.977064  -0.788184   0.127339   0.072277   0.652851  -0.007494  -0.050250   0.107121  -0.324765   0.040035  -0.153124   0.254358   0.042127   0.317675  -0.501358   1.507666   1.771320   0.748275   4.615561   0.037998   1.517413  -0.012345   1.009177  -0.580076  -4.755914   0.399187   0.596157  -1.664507   2.398779  -0.507965  -4.493315   0.040267  -1.628431   0.017869   1.144115   0.507737   4.417618   0.618411   0.311743  -0.329466   1.113803   0.001216   0.001924  -1.405704  -0.067593   0.098825  -0.463033  -0.000304  -0.000692   0.799412  -0.440990   0.058778   1.014026  -0.000565  -0.001232  -1.560402  -0.075900  -0.059205   0.325875  -0.000082  -0.000490
 -2.376025   0.928253   3.977923  -1.170486   0.201948   0.104421   0.890769  -0.032820  -0.058258   0.134915  -0.496905   0.068659  -0.223580   0.369833   0.064841   0.468783  -0.681785   3.061679   2.604633   1.213992   7.591001   0.059212   2.226122  -0.015271   1.511209  -0.662814  -5.931866   0.592967   0.798531  -3.294833   3.545179  -0.891054  -7.415573   0.062750  -2.390172   0.022678   1.716459   0.541853   5.416436   0.919783   0.453941  -0.573704   1.675415   0.002068   0.002567  -2.040039  -0.099076   0.142407  -0.693083  -0.000577  -0.000935   1.256486  -0.642238   0.155116   1.544666  -0.001055  -0.001549  -2.265028  -0.110001  -0.086744   0.439107  -0.000162  -0.000551
 -2.375735   0.928978   3.978879  -1.523348   0.272257   0.132190   1.082443  -0.066872  -0.057675   0.134366  -0.668591   0.101938  -0.295829   0.477569   0.086996   0.614934  -0.834366   4.862290   3.400641   1.731877  10.819247   0.077460   2.890881  -0.016754   1.992759  -0.701440  -6.484985   0.779209   0.958808  -5.165083   4.653744  -1.355898 -10.589656   0.082140  -3.107867   0.025660   2.266519   0.513227   5.803850   1.195693   0.584243  -0.852800   2.201817   0.002877   0.002918  -2.632662  -0.129508   0.182474  -0.910194  -0.000857  -0.001084   1.722703  -0.827276   0.289327   2.055769  -0.001573  -0.001716  -2.922893  -0.140901  -0.112586   0.537368  -0.000243  -0.000566
 -2.375438   0.929189   3.979894  -1.848346   0.333420   0.156051   1.238511  -0.107498  -0.050380   0.113226  -0.838127   0.138838  -0.368162   0.578111   0.108208   0.757775  -0.969606   6.781151   4.158514   2.298063  14.214554   0.091751   3.512160  -0.017279   2.453273  -0.717169  -6.617310   0.957997   1.090040  -7.146136   5.722906  -1.898677 -13.927319   0.097390  -3.782007   0.027413   2.794036   0.443367   5.785003   1.445069   0.703766  -1.158084   2.692070   0.003577   0.003032  -3.186402  -0.158791   0.219352  -1.114429  -0.001116  -0.001154   2.191351  -0.997317   0.454339   2.544776  -0.002069  -0.001792  -3.537139  -0.168960  -0.136783   0.623048  -0.000313  -0.000556
 -2.375169   0.928718   3.980939  -2.148341   0.382144   0.178373   1.367469  -0.153165  -0.042184   0.078721  -1.004427   0.169309  -0.439144   0.671913   0.130948   0.898530  -1.093424   8.738193   4.876785   2.909720  17.722276   0.101962   4.091598  -0.017192   2.892838  -0.721220  -6.473543   1.130259   1.199900  -9.184462   6.717424  -2.497030 -17.278470   0.108144  -4.415166   0.028167   3.300278   0.337458   5.461083   1.668605   0.813607  -1.481798   3.147714   0.004130   0.002966  -3.703787  -0.186886   0.253292  -1.305931  -0.001336  -0.001159   2.657866  -1.153512   0.644133   3.011369  -0.002522  -0.001815  -4.110608  -0.194531  -0.159446   0.698243  -0.000370  -0.000533
 -2.374952   0.926804   3.981459  -2.177582   0.365310   0.148455   1.364594  -0.173157   0.062038  -0.028584  -1.164552   0.143301  -0.722489   0.638380   0.106033   1.104197  -1.110714  10.071570   5.727213   3.529772  21.061809   0.117685   4.936856  -0.020830   3.276891  -0.707704  -5.184342   1.409248   1.318559 -10.437333   7.568416  -3.117370 -20.612224   0.117246  -5.163167   0.030297   3.740440   0.028313   4.088997   1.523942   0.689267  -1.710821   3.643680   0.004417   0.001638  -3.870633  -0.212510   0.518934  -1.223202  -0.001069  -0.001050   2.914128  -1.179563   0.857803   2.835345  -0.001733  -0.001402  -4.307390  -0.227295  -0.087647   0.859853  -0.000654  -0.000538
 -2.374767   0.923673   3.981687  -2.169624   0.358492   0.112187   1.403072  -0.197102   0.167569  -0.135726  -1.313022   0.122901  -1.004925   0.600334   0.075904   1.281397  -1.084751  11.126800   6.480466   4.177172  24.048020   0.124282   5.742592  -0.023383   3.666585  -0.573832  -3.970871   1.657797   1.402463 -11.394111   8.326137  -3.747378 -23.580098   0.118898  -5.870141   0.031454   4.165204  -0.360629   2.814722   1.351170   0.558242  -1.896721   4.090638   0.004379   0.000660  -4.021709  -0.239339   0.766944  -1.113562  -0.000875  -0.001003   3.070507  -1.200998   1.047373   2.554429  -0.001008  -0.001066  -4.494608  -0.257510  -0.020428   1.016897  -0.000825  -0.000516
 -2.374596   0.919454   3.981750  -2.154433   0.356345   0.075299   1.472903  -0.214335   0.269680  -0.221016  -1.445871   0.109581  -1.265243   0.564323   0.046161   1.431229  -1.034138  11.982087   7.145180   4.829782  26.736925   0.124655   6.502135  -0.024926   4.044692  -0.397855  -2.987244   1.876025   1.461806 -12.144022   8.999499  -4.373771 -26.241034   0.115803  -6.533780   0.031674   4.568944  -0.757608   1.790413   1.192025   0.435842  -2.050894   4.500904   0.004158  -0.000018  -4.162686  -0.264896   0.998485  -1.010674  -0.000733  -0.000944   3.158007  -1.220681   1.207483   2.253477  -0.000480  -0.000803  -4.671036  -0.286016   0.042116   1.158751  -0.000892  -0.000478
 -2.374385   0.919746   3.982269  -2.268087   0.360975   0.136016   1.585519  -0.225620   0.299213  -0.254113  -1.564436   0.069479  -1.495214   0.530686   0.014597   1.572728  -0.979538  13.017681   7.734347   5.470388  29.286928   0.123211   7.202642  -0.025203   4.406121  -0.275634  -2.251078   2.077776   1.513316 -13.062931   9.597794  -4.987517 -28.749656   0.111687  -7.142247   0.030716   4.951526  -1.060817   1.037211   1.084506   0.391152  -2.155244   5.000973   0.003510  -0.000269  -4.185193  -0.210569   1.338976  -0.788172  -0.001159  -0.000760   3.255011  -1.208764   1.130374   2.304838  -0.000376  -0.000634  -4.320156  -0.284732   0.045249   1.376187  -0.000686  -0.000339
 -2.374194   0.920053   3.982920  -2.325961   0.335782   0.222334   1.640704  -0.216128   0.319799  -0.305470  -1.657996   0.022487  -1.710551   0.499944  -0.018092   1.708042  -0.932453  13.828334   8.259607   6.095505  31.653082   0.118534   7.866811  -0.024765   4.751205  -0.097762  -1.421482   2.276065   1.579836 -13.762650  10.138526  -5.575988 -31.075022   0.105299  -7.717545   0.029169   5.312221  -1.406212   0.195401   0.975204   0.295230  -2.283643   5.406653   0.002917  -0.000696  -4.267942  -0.229786   1.525405  -0.676043  -0.001068  -0.000755   3.382316  -1.216613   1.020240   2.262922  -0.000309  -0.000496  -4.318704  -0.307261   0.089468   1.542436  -0.000579  -0.000342
 -2.374056   0.920302   3.983588  -2.348587   0.316722   0.304413   1.682959  -0.202786   0.351579  -0.368478  -1.738466  -0.016800  -1.916373   0.471177  -0.048706   1.829946  -0.886564  14.496066   8.727321   6.694156  33.801813   0.111602   8.487216  -0.023890   5.080020   0.084705  -0.694239   2.461655   1.647614 -14.328902  10.626323  -6.133147 -33.187353   0.097390  -8.252154   0.027239   5.653076  -1.735844  -0.546363   0.860715   0.201900  -2.403250   5.755693   0.002410  -0.000938  -4.358806  -0.249611   1.696789  -0.580653  -0.000967  -0.000721   3.499686  -1.228514   0.918913   2.174937  -0.000261  -0.000376  -4.350208  -0.330140   0.132527   1.667281  -0.000489  -0.000326
 -2.374065   0.920565   3.984218  -2.309200   0.340333   0.362833   1.712761  -0.192140   0.331474  -0.464443  -1.764370   0.031238  -2.061144   0.389867  -0.076226   1.916038  -0.994877  14.763806   9.124118   7.233205  35.429975   0.102898   9.203700  -0.022887   5.360572   0.421659   0.710842   2.637507   1.751792 -14.496474  10.949707  -6.734565 -34.960509   0.090241  -8.936033   0.025515   5.971128  -2.043386  -1.790854   0.785851   0.119520  -2.478950   5.913837   0.001941  -0.000841  -4.462638  -0.164128   1.854245  -0.364079  -0.001044  -0.000530   3.592277  -1.275002   0.858775   1.999447  -0.000216  -0.000268  -4.400548  -0.334005   0.146977   1.778036  -0.000400  -0.000284
